<?xml version="1.0" encoding="UTF-8" ?>
<svg version="1.1" width="32" height="32" xmlns="http://www.w3.org/2000/svg" shape-rendering="crispEdges">
<rect x="12" y="0" width="8" height="2" fill="#000000" />
<rect x="9" y="1" width="3" height="2" fill="#000000" />
<rect x="20" y="1" width="3" height="2" fill="#000000" />
<rect x="7" y="2" width="2" height="2" fill="#000000" />
<rect x="12" y="2" width="1" height="1" fill="#000000" />
<rect x="19" y="2" width="1" height="1" fill="#000000" />
<rect x="23" y="2" width="2" height="2" fill="#000000" />
<rect x="6" y="3" width="1" height="3" fill="#000000" />
<rect x="9" y="3" width="1" height="1" fill="#000000" />
<rect x="22" y="3" width="1" height="1" fill="#000000" />
<rect x="25" y="3" width="1" height="3" fill="#000000" />
<rect x="5" y="4" width="1" height="3" fill="#000000" />
<rect x="7" y="4" width="1" height="1" fill="#000000" />
<rect x="13" y="4" width="6" height="24" fill="#000000" />
<rect x="24" y="4" width="1" height="1" fill="#000000" />
<rect x="26" y="4" width="1" height="3" fill="#000000" />
<rect x="4" y="5" width="1" height="3" fill="#000000" />
<rect x="11" y="5" width="2" height="22" fill="#000000" />
<rect x="19" y="5" width="2" height="22" fill="#000000" />
<rect x="27" y="5" width="1" height="3" fill="#000000" />
<rect x="3" y="6" width="1" height="4" fill="#000000" />
<rect x="9" y="6" width="2" height="20" fill="#000000" />
<rect x="21" y="6" width="2" height="20" fill="#000000" />
<rect x="28" y="6" width="1" height="4" fill="#000000" />
<rect x="2" y="7" width="1" height="6" fill="#000000" />
<rect x="8" y="7" width="1" height="18" fill="#000000" />
<rect x="23" y="7" width="1" height="18" fill="#000000" />
<rect x="29" y="7" width="1" height="6" fill="#000000" />
<rect x="7" y="8" width="1" height="16" fill="#000000" />
<rect x="24" y="8" width="1" height="16" fill="#000000" />
<rect x="1" y="9" width="1" height="14" fill="#000000" />
<rect x="6" y="9" width="1" height="14" fill="#000000" />
<rect x="25" y="9" width="1" height="14" fill="#000000" />
<rect x="30" y="9" width="1" height="14" fill="#000000" />
<rect x="5" y="11" width="1" height="10" fill="#000000" />
<rect x="26" y="11" width="1" height="10" fill="#000000" />
<rect x="0" y="12" width="1" height="8" fill="#000000" />
<rect x="31" y="12" width="1" height="8" fill="#000000" />
<rect x="4" y="13" width="1" height="6" fill="#000000" />
<rect x="27" y="13" width="1" height="6" fill="#000000" />
<rect x="2" y="19" width="1" height="6" fill="#000000" />
<rect x="29" y="19" width="1" height="6" fill="#000000" />
<rect x="3" y="22" width="1" height="4" fill="#000000" />
<rect x="28" y="22" width="1" height="4" fill="#000000" />
<rect x="4" y="24" width="1" height="3" fill="#000000" />
<rect x="27" y="24" width="1" height="3" fill="#000000" />
<rect x="5" y="25" width="1" height="3" fill="#000000" />
<rect x="26" y="25" width="1" height="3" fill="#000000" />
<rect x="6" y="26" width="1" height="3" fill="#000000" />
<rect x="25" y="26" width="1" height="3" fill="#000000" />
<rect x="7" y="27" width="1" height="3" fill="#000000" />
<rect x="24" y="27" width="1" height="3" fill="#000000" />
<rect x="8" y="28" width="2" height="2" fill="#000000" />
<rect x="22" y="28" width="2" height="2" fill="#000000" />
<rect x="10" y="29" width="3" height="2" fill="#000000" />
<rect x="19" y="29" width="3" height="2" fill="#000000" />
<rect x="9" y="30" width="1" height="1" fill="#000000" />
<rect x="13" y="30" width="6" height="2" fill="#000000" />
<rect x="22" y="30" width="1" height="1" fill="#000000" />
<rect x="12" y="31" width="1" height="1" fill="#000000" />
<rect x="19" y="31" width="1" height="1" fill="#000000" />
</svg>