<?xml version="1.0" encoding="UTF-8" ?>
<svg version="1.1" width="32" height="32" xmlns="http://www.w3.org/2000/svg" shape-rendering="crispEdges">
<rect x="15" y="1" width="2" height="31" fill="#000000" />
<rect x="14" y="2" width="1" height="30" fill="#000000" />
<rect x="17" y="2" width="1" height="29" fill="#000000" />
<rect x="4" y="17" width="3" height="2" fill="#000000" />
<rect x="25" y="17" width="3" height="2" fill="#000000" />
<rect x="7" y="18" width="1" height="5" fill="#000000" />
<rect x="24" y="18" width="1" height="5" fill="#000000" />
<rect x="5" y="19" width="2" height="1" fill="#000000" />
<rect x="8" y="19" width="1" height="5" fill="#000000" />
<rect x="23" y="19" width="1" height="5" fill="#000000" />
<rect x="25" y="19" width="2" height="1" fill="#000000" />
<rect x="6" y="20" width="1" height="2" fill="#000000" />
<rect x="9" y="20" width="1" height="6" fill="#000000" />
<rect x="22" y="20" width="1" height="5" fill="#000000" />
<rect x="25" y="20" width="1" height="1" fill="#000000" />
<rect x="10" y="22" width="1" height="5" fill="#000000" />
<rect x="21" y="22" width="1" height="4" fill="#000000" />
<rect x="11" y="23" width="1" height="5" fill="#000000" />
<rect x="20" y="23" width="1" height="4" fill="#000000" />
<rect x="12" y="24" width="1" height="6" fill="#000000" />
<rect x="19" y="24" width="1" height="5" fill="#000000" />
<rect x="13" y="25" width="1" height="6" fill="#000000" />
<rect x="18" y="25" width="1" height="5" fill="#000000" />
</svg>