<?xml version="1.0" encoding="UTF-8" ?>
<svg version="1.1" width="32" height="32" xmlns="http://www.w3.org/2000/svg" shape-rendering="crispEdges">
<rect x="17" y="4" width="2" height="3" fill="#000000" />
<rect x="19" y="5" width="1" height="4" fill="#000000" />
<rect x="20" y="6" width="2" height="4" fill="#000000" />
<rect x="18" y="7" width="1" height="1" fill="#000000" />
<rect x="22" y="7" width="1" height="4" fill="#000000" />
<rect x="23" y="8" width="1" height="4" fill="#000000" />
<rect x="24" y="9" width="2" height="4" fill="#000000" />
<rect x="26" y="10" width="1" height="11" fill="#000000" />
<rect x="27" y="11" width="1" height="9" fill="#000000" />
<rect x="28" y="12" width="2" height="7" fill="#000000" />
<rect x="25" y="13" width="1" height="9" fill="#000000" />
<rect x="30" y="13" width="1" height="5" fill="#000000" />
<rect x="2" y="14" width="23" height="4" fill="#000000" />
<rect x="31" y="14" width="1" height="3" fill="#000000" />
<rect x="1" y="15" width="1" height="2" fill="#000000" />
<rect x="24" y="19" width="1" height="4" fill="#000000" />
<rect x="28" y="19" width="1" height="1" fill="#000000" />
<rect x="23" y="20" width="1" height="4" fill="#000000" />
<rect x="22" y="21" width="1" height="4" fill="#000000" />
<rect x="20" y="22" width="2" height="3" fill="#000000" />
<rect x="19" y="23" width="1" height="4" fill="#000000" />
<rect x="18" y="24" width="1" height="4" fill="#000000" />
<rect x="17" y="25" width="1" height="3" fill="#000000" />
<rect x="20" y="25" width="1" height="1" fill="#000000" />
</svg>