<?xml version="1.0" encoding="UTF-8" ?>
<svg version="1.1" width="32" height="32" xmlns="http://www.w3.org/2000/svg" shape-rendering="crispEdges">
<rect x="6" y="1" width="1" height="4" fill="#000000" />
<rect x="25" y="1" width="1" height="4" fill="#000000" />
<rect x="2" y="2" width="4" height="2" fill="#000000" />
<rect x="7" y="2" width="18" height="2" fill="#000000" />
<rect x="26" y="2" width="4" height="2" fill="#000000" />
<rect x="2" y="4" width="2" height="26" fill="#000000" />
<rect x="28" y="4" width="2" height="26" fill="#000000" />
<rect x="4" y="7" width="24" height="1" fill="#000000" />
<rect x="10" y="9" width="1" height="17" fill="#000000" />
<rect x="19" y="9" width="5" height="2" fill="#000000" />
<rect x="9" y="10" width="1" height="16" fill="#000000" />
<rect x="18" y="10" width="1" height="4" fill="#000000" />
<rect x="24" y="10" width="1" height="8" fill="#000000" />
<rect x="8" y="11" width="1" height="2" fill="#000000" />
<rect x="19" y="11" width="1" height="1" fill="#000000" />
<rect x="23" y="11" width="1" height="1" fill="#000000" />
<rect x="25" y="11" width="1" height="5" fill="#000000" />
<rect x="7" y="12" width="1" height="2" fill="#000000" />
<rect x="17" y="12" width="1" height="2" fill="#000000" />
<rect x="6" y="13" width="1" height="1" fill="#000000" />
<rect x="23" y="15" width="1" height="4" fill="#000000" />
<rect x="22" y="17" width="1" height="3" fill="#000000" />
<rect x="21" y="18" width="1" height="3" fill="#000000" />
<rect x="20" y="19" width="1" height="3" fill="#000000" />
<rect x="19" y="20" width="1" height="6" fill="#000000" />
<rect x="18" y="21" width="1" height="5" fill="#000000" />
<rect x="17" y="23" width="1" height="3" fill="#000000" />
<rect x="24" y="23" width="2" height="3" fill="#000000" />
<rect x="7" y="24" width="2" height="2" fill="#000000" />
<rect x="11" y="24" width="2" height="2" fill="#000000" />
<rect x="20" y="24" width="4" height="2" fill="#000000" />
<rect x="6" y="25" width="1" height="1" fill="#000000" />
<rect x="13" y="25" width="1" height="1" fill="#000000" />
<rect x="4" y="28" width="24" height="2" fill="#000000" />
</svg>