<?xml version="1.0" encoding="UTF-8" ?>
<svg version="1.1" width="32" height="32" xmlns="http://www.w3.org/2000/svg" shape-rendering="crispEdges">
<rect x="9" y="8" width="3" height="2" fill="#000000" />
<rect x="7" y="9" width="2" height="3" fill="#000000" />
<rect x="12" y="9" width="4" height="2" fill="#000000" />
<rect x="6" y="10" width="1" height="3" fill="#000000" />
<rect x="9" y="10" width="1" height="1" fill="#000000" />
<rect x="11" y="10" width="1" height="1" fill="#000000" />
<rect x="16" y="10" width="2" height="4" fill="#000000" />
<rect x="23" y="10" width="4" height="8" fill="#000000" />
<rect x="4" y="11" width="2" height="2" fill="#000000" />
<rect x="13" y="11" width="3" height="1" fill="#000000" />
<rect x="18" y="11" width="1" height="4" fill="#000000" />
<rect x="22" y="11" width="1" height="6" fill="#000000" />
<rect x="27" y="11" width="1" height="6" fill="#000000" />
<rect x="3" y="12" width="1" height="2" fill="#000000" />
<rect x="14" y="12" width="2" height="1" fill="#000000" />
<rect x="19" y="12" width="1" height="3" fill="#000000" />
<rect x="21" y="12" width="1" height="4" fill="#000000" />
<rect x="28" y="12" width="1" height="4" fill="#000000" />
<rect x="1" y="13" width="2" height="1" fill="#000000" />
<rect x="4" y="13" width="1" height="1" fill="#000000" />
<rect x="8" y="14" width="6" height="2" fill="#000000" />
<rect x="6" y="15" width="2" height="2" fill="#000000" />
<rect x="14" y="15" width="2" height="3" fill="#000000" />
<rect x="4" y="16" width="2" height="2" fill="#000000" />
<rect x="8" y="16" width="3" height="1" fill="#000000" />
<rect x="12" y="16" width="2" height="1" fill="#000000" />
<rect x="16" y="16" width="2" height="3" fill="#000000" />
<rect x="31" y="16" width="1" height="3" fill="#000000" />
<rect x="3" y="17" width="1" height="3" fill="#000000" />
<rect x="6" y="17" width="1" height="1" fill="#000000" />
<rect x="18" y="17" width="1" height="3" fill="#000000" />
<rect x="30" y="17" width="1" height="2" fill="#000000" />
<rect x="1" y="18" width="2" height="2" fill="#000000" />
<rect x="4" y="18" width="1" height="1" fill="#000000" />
<rect x="8" y="18" width="4" height="3" fill="#000000" />
<rect x="19" y="18" width="2" height="3" fill="#000000" />
<rect x="29" y="18" width="1" height="2" fill="#000000" />
<rect x="0" y="19" width="1" height="3" fill="#000000" />
<rect x="6" y="19" width="2" height="3" fill="#000000" />
<rect x="12" y="19" width="1" height="3" fill="#000000" />
<rect x="21" y="19" width="2" height="3" fill="#000000" />
<rect x="27" y="19" width="2" height="1" fill="#000000" />
<rect x="1" y="20" width="1" height="1" fill="#000000" />
<rect x="4" y="20" width="2" height="3" fill="#000000" />
<rect x="13" y="20" width="2" height="3" fill="#000000" />
<rect x="23" y="20" width="5" height="1" fill="#000000" />
<rect x="3" y="21" width="1" height="3" fill="#000000" />
<rect x="15" y="21" width="1" height="3" fill="#000000" />
<rect x="23" y="21" width="3" height="1" fill="#000000" />
<rect x="30" y="21" width="2" height="3" fill="#000000" />
<rect x="2" y="22" width="1" height="3" fill="#000000" />
<rect x="16" y="22" width="3" height="2" fill="#000000" />
<rect x="29" y="22" width="1" height="3" fill="#000000" />
<rect x="1" y="23" width="1" height="3" fill="#000000" />
<rect x="19" y="23" width="3" height="2" fill="#000000" />
<rect x="27" y="23" width="2" height="3" fill="#000000" />
<rect x="0" y="24" width="1" height="3" fill="#000000" />
<rect x="17" y="24" width="2" height="1" fill="#000000" />
<rect x="22" y="24" width="5" height="2" fill="#000000" />
<rect x="30" y="24" width="1" height="1" fill="#000000" />
<rect x="20" y="25" width="2" height="1" fill="#000000" />
<rect x="24" y="26" width="2" height="1" fill="#000000" />
</svg>